<svg xmlns="http://www.w3.org/2000/svg" width="80" height="80" viewBox="0 0 80 80"><g id="组_5136" data-name="组 5136" transform="translate(-862 -880)"><path id="路径_14201" fill="#6c63ff" d="M36.412,248.346,8.505,276.253v2.658l9.3,9.3h2.658l27.907-27.907" data-name="路径 14201" transform="translate(854.824 670.458)"/><path id="路径_14202" fill="#fff" d="M66.977,59.375,36.412,28.811V27.482c0-11.96-5.316-17.276-15.947-17.276l-2.658,1.329,7.973,7.973-7.973,7.973L9.834,19.508,8.505,22.166c0,10.631,5.316,15.947,17.276,15.947H27.11L57.675,68.678v1.329c0,11.96,5.316,17.276,15.947,17.276l2.658-1.329L68.306,77.98l7.973-7.973,7.973,7.973,1.329-2.658c0-10.631-5.316-15.947-17.276-15.947H66.977Z" data-name="路径 14202" transform="translate(854.824 871.389)"/><rect id="矩形_4382" width="43.189" height="13.156" fill="#f9746c" data-name="矩形 4382" transform="translate(912.403 940.057) rotate(-135)"/><g id="组_5125" data-name="组 5125" transform="translate(862 880.266)"><path id="路径_14203" fill="#4d5152" d="M66.711,81.435h-.266c-11.561,0-17.276-6.113-17.276-18.6v-.8L19.4,32.266h-.8C6.113,32.266,0,26.551,0,14.99v-.266l2.259-4.651,8.372,8.372,6.113-6.113L8.372,3.96,13.023,1.7h.266c11.561,0,17.276,6.113,17.276,18.6v.8L60.332,50.871h.8c12.492,0,18.6,5.714,18.6,17.276v.266l-2.259,4.651L69.1,64.691,62.99,70.8l8.372,8.372ZM2.658,15.256C2.791,25.09,7.708,29.608,18.6,29.608h1.86L51.827,60.97v1.86c0,10.9,4.385,15.814,14.352,15.947l.664-.4L59.269,70.8,69.1,60.97l7.575,7.575.4-.665c-.133-9.834-5.05-14.352-15.947-14.352h-1.86L27.907,22.166v-1.86c0-10.9-4.385-15.814-14.352-15.947l-.664.4,7.575,7.575-9.834,9.834L3.056,14.591Z" data-name="路径 14203" transform="translate(0 -1.701)"/><path id="路径_14204" fill="#4d5152" d="M13.821,282.365H10.1L0,272.266v-3.721l28.306-28.306a1.316,1.316,0,0,1,1.86,1.86L2.658,269.608V271.2l8.505,8.505h1.595L40.266,252.2a1.316,1.316,0,0,1,1.86,1.86Z" data-name="路径 14204" transform="translate(0 -202.631)"/></g><path id="路径_14205" fill="#6c63ff" d="M204.12,235.323l3.987-3.987,7.973,7.973-3.987,3.987" data-name="路径 14205" transform="translate(689.774 684.81)"/><path id="路径_14206" fill="#4d5152" d="M204.917,234.578a1.206,1.206,0,0,1-.93-.4,1.285,1.285,0,0,1,0-1.86l3.056-3.056-6.113-6.113-3.056,3.056a1.316,1.316,0,1,1-1.86-1.86l4.917-4.917,9.834,9.834-4.917,4.917A1.206,1.206,0,0,1,204.917,234.578Z" data-name="路径 14206" transform="translate(696.95 694.857)"/><path id="路径_14207" fill="#fff" d="M246.645,46.086l26.578-26.578V15.522l10.631-5.316,2.658,2.658L281.2,23.5H277.21L250.632,50.073" data-name="路径 14207" transform="translate(653.893 871.389)"/><g id="组_5126" data-name="组 5126" transform="translate(868.645 880)"><path id="路径_14208" fill="#4d5152" d="M243.455,42.791a1.206,1.206,0,0,1-.93-.4,1.285,1.285,0,0,1,0-1.86L269.5,13.555h3.721l4.518-9.037-1.329-1.329-9.037,4.518v3.721L240.4,38.405a1.316,1.316,0,0,1-1.86-1.86l26.179-26.179V6.113L276.943,0l3.987,3.987-6.113,12.226h-4.253L244.385,42.392A1.206,1.206,0,0,1,243.455,42.791Z" data-name="路径 14208" transform="translate(-207.575)"/><path id="路径_14209" fill="#4d5152" d="M43.854,314.791a1.206,1.206,0,0,1-.93-.4,1.285,1.285,0,0,1,0-1.86l21.262-21.262a1.316,1.316,0,1,1,1.86,1.86L44.785,314.392A1.207,1.207,0,0,1,43.854,314.791Z" data-name="路径 14209" transform="translate(-42.525 -245.422)"/><path id="路径_14210" fill="#4d5152" d="M69.369,340.306a1.206,1.206,0,0,1-.93-.4,1.285,1.285,0,0,1,0-1.86L89.7,316.784a1.316,1.316,0,0,1,1.86,1.86L70.3,339.907A1.207,1.207,0,0,1,69.369,340.306Z" data-name="路径 14210" transform="translate(-64.054 -266.95)"/></g></g></svg>