<svg xmlns="http://www.w3.org/2000/svg" xmlns:xlink="http://www.w3.org/1999/xlink" width="80" height="57" viewBox="0 0 80 57"><defs><clipPath id="clip-path"><rect id="矩形_4136" width="27.313" height="17" fill="#4d5152" data-name="矩形 4136" transform="translate(0 0)"/></clipPath></defs><g id="组_4614" data-name="组 4614" transform="translate(-257 -1282)"><rect id="矩形_4113" width="77.589" height="37.321" fill="#fff" data-name="矩形 4113" transform="translate(257.982 1300.696)"/><path id="路径_11031" fill="#4d5152" d="M80,216H0V176H80ZM2.5,213.5h75v-35H2.5Z" data-name="路径 11031" transform="translate(257 1123)"/><path id="路径_11084" fill="#6c63ff" d="M0,0H24.554V4.911H0Z" data-name="路径 11084" transform="translate(284.5 1326.232)"/><path id="路径_11032" fill="#4d5152" d="M195.5,351.5H168V344h27.5Zm-25-2.5H193v-2.5H170.5Z" data-name="路径 11032" transform="translate(115.25 981.25)"/><path id="路径_11034" fill="#4d5152" d="M111.5,223.5H104V216h7.5Zm-5-2.5H109v-2.5h-2.5Z" data-name="路径 11034" transform="translate(169.25 1089.25)"/><path id="路径_11035" fill="#4d5152" d="M175.5,223.5H168V216h7.5Zm-5-2.5H173v-2.5h-2.5Z" data-name="路径 11035" transform="translate(115.25 1089.25)"/><path id="路径_11036" fill="#4d5152" d="M239.5,223.5H232V216h7.5Zm-5-2.5H237v-2.5h-2.5Z" data-name="路径 11036" transform="translate(61.25 1089.25)"/><path id="路径_11037" fill="#4d5152" d="M303.5,223.5H296V216h7.5Zm-5-2.5H301v-2.5h-2.5Z" data-name="路径 11037" transform="translate(7.25 1089.25)"/><path id="路径_11038" fill="#4d5152" d="M367.5,223.5H360V216h7.5Zm-5-2.5H365v-2.5h-2.5Z" data-name="路径 11038" transform="translate(-46.75 1089.25)"/><path id="路径_11040" fill="#4d5152" d="M47.5,287.5H40V280h7.5Zm-5-2.5H45v-2.5H42.5Z" data-name="路径 11040" transform="translate(223.25 1035.25)"/><path id="路径_11041" fill="#4d5152" d="M111.5,287.5H104V280h7.5Zm-5-2.5H109v-2.5h-2.5Z" data-name="路径 11041" transform="translate(169.25 1035.25)"/><path id="路径_11042" fill="#4d5152" d="M175.5,287.5H168V280h7.5Zm-5-2.5H173v-2.5h-2.5Z" data-name="路径 11042" transform="translate(115.25 1035.25)"/><path id="路径_11043" fill="#4d5152" d="M239.5,287.5H232V280h7.5Zm-5-2.5H237v-2.5h-2.5Z" data-name="路径 11043" transform="translate(61.25 1035.25)"/><path id="路径_11044" fill="#4d5152" d="M303.5,287.5H296V280h7.5Zm-5-2.5H301v-2.5h-2.5Z" data-name="路径 11044" transform="translate(7.25 1035.25)"/><path id="路径_11045" fill="#4d5152" d="M367.5,287.5H360V280h7.5Zm-5-2.5H365v-2.5h-2.5Z" data-name="路径 11045" transform="translate(-46.75 1035.25)"/><path id="路径_11046" fill="#4d5152" d="M431.5,287.5H424V280h7.5Zm-5-2.5H429v-2.5h-2.5Z" data-name="路径 11046" transform="translate(-100.75 1035.25)"/><path id="路径_11047" fill="#4d5152" d="M47.5,351.5H40V344h7.5Zm-5-2.5H45v-2.5H42.5Z" data-name="路径 11047" transform="translate(223.25 981.25)"/><path id="路径_11048" fill="#4d5152" d="M111.5,351.5H104V344h7.5Zm-5-2.5H109v-2.5h-2.5Z" data-name="路径 11048" transform="translate(169.25 981.25)"/><path id="路径_11049" fill="#4d5152" d="M367.5,351.5H360V344h7.5Zm-5-2.5H365v-2.5h-2.5Z" data-name="路径 11049" transform="translate(-46.75 981.25)"/><path id="路径_11050" fill="#4d5152" d="M431.5,351.5H424V344h7.5Zm-5-2.5H429v-2.5h-2.5Z" data-name="路径 11050" transform="translate(-100.75 981.25)"/><g id="组_4606" data-name="组 4606" transform="translate(284 1282)"><g id="组_4605" clip-path="url(#clip-path)" data-name="组 4605" transform="translate(0 0)"><path id="路径_11083" fill="#4d5152" d="M14.575,17h-1.9a5.379,5.379,0,0,1,5.6-5.117h3.251a3.671,3.671,0,0,0,3.891-3.392A3.671,3.671,0,0,0,21.518,5.1H5.576A5.359,5.359,0,0,1,0,0H1.9A3.462,3.462,0,0,0,5.576,3.195H21.518a5.569,5.569,0,0,1,5.8,5.3,5.569,5.569,0,0,1-5.8,5.3H18.267A3.481,3.481,0,0,0,14.575,17" data-name="路径 11083" transform="translate(0 0)"/></g></g><rect id="矩形_4139" width="4" height="4" fill="#f9746c" data-name="矩形 4139" transform="translate(265 1307)"/><path id="路径_11091" fill="#4d5152" d="M47.5,223.5H40V216h7.5Zm-5-2.5H45v-2.5H42.5Z" data-name="路径 11091" transform="translate(223.25 1089.25)"/><rect id="矩形_4140" width="4" height="4" fill="#f9746c" data-name="矩形 4140" transform="translate(325 1307)"/><path id="路径_11092" fill="#4d5152" d="M431.5,223.5H424V216h7.5Zm-5-2.5H429v-2.5h-2.5Z" data-name="路径 11092" transform="translate(-100.75 1089.25)"/></g></svg>